<svg width="189" height="39" viewBox="0 0 189 39" fill="none" xmlns="http://www.w3.org/2000/svg">
<path d="M33.9769 9.00443L18.3976 0.344971L2.81843 9.00443L12.7289 14.4972C14.1559 13.0116 16.1693 12.0734 18.3976 12.0734C20.626 12.0734 22.6394 13.0116 24.0664 14.4972L33.9769 9.00443ZM14.4882 19.8923C14.4882 17.7421 16.2474 15.9828 18.3976 15.9828C20.5479 15.9828 22.3071 17.7421 22.3071 19.8923C22.3071 22.0425 20.5479 23.8018 18.3976 23.8018C16.2474 23.8018 14.4882 22.0425 14.4882 19.8923ZM16.4429 38.345L0.805054 29.666V12.347L10.8328 17.918C10.6569 18.5435 10.5787 19.2081 10.5787 19.8923C10.5787 23.5281 13.0612 26.597 16.4429 27.4571V38.345ZM20.3524 38.345V27.4571C23.7341 26.597 26.2166 23.5281 26.2166 19.8923C26.2166 19.2081 26.1384 18.5435 25.9625 17.918L35.9902 12.347V29.666L20.3524 38.345Z" fill="url(#paint0_linear)"/>
<path d="M51.9199 28.0208C52.7038 28.0208 53.4876 27.8977 54.2715 27.6516V30.0715C53.916 30.2265 53.4557 30.3541 52.8906 30.4543C52.3346 30.5637 51.7559 30.6184 51.1543 30.6184C48.11 30.6184 46.5879 29.0142 46.5879 25.8059V17.6575H44.5234V16.2356L46.7383 15.0598L47.832 11.8606H49.8145V15.2239H54.1211V17.6575H49.8145V25.7512C49.8145 26.526 50.0059 27.1002 50.3887 27.4739C50.7806 27.8385 51.291 28.0208 51.9199 28.0208ZM70.7188 22.7571C70.7188 25.2271 70.0853 27.1549 68.8184 28.5403C67.5514 29.9257 65.7878 30.6184 63.5273 30.6184C62.1146 30.6184 60.8659 30.2994 59.7812 29.6614C58.6966 29.0234 57.8626 28.1073 57.2793 26.9133C56.696 25.7193 56.4043 24.3339 56.4043 22.7571C56.4043 20.3053 57.0332 18.3912 58.291 17.0149C59.5488 15.6386 61.3216 14.9504 63.6094 14.9504C65.7969 14.9504 67.5286 15.6568 68.8047 17.0696C70.0807 18.4732 70.7188 20.3691 70.7188 22.7571ZM59.7129 22.7571C59.7129 26.248 61.0026 27.9934 63.582 27.9934C66.1341 27.9934 67.4102 26.248 67.4102 22.7571C67.4102 19.3027 66.125 17.5754 63.5547 17.5754C62.2057 17.5754 61.2259 18.0221 60.6152 18.9153C60.0137 19.8085 59.7129 21.0891 59.7129 22.7571ZM77.5273 22.3606L79.3457 20.0911L83.9121 15.2239H87.6172L81.5332 21.718L88 30.345H84.2266L79.373 23.7141L77.6094 25.1633V30.345H74.4238V9.07153H77.6094V19.4485L77.4453 22.3606H77.5273ZM97.0508 30.6184C94.6992 30.6184 92.8581 29.9348 91.5273 28.5676C90.2057 27.1913 89.5449 25.3 89.5449 22.8938C89.5449 20.4237 90.1602 18.4823 91.3906 17.0696C92.6211 15.6568 94.3118 14.9504 96.4629 14.9504C98.459 14.9504 100.036 15.5566 101.193 16.7688C102.351 17.981 102.93 19.649 102.93 21.7727V23.509H92.8535C92.8991 24.9765 93.2956 26.1067 94.043 26.8997C94.7904 27.6835 95.8431 28.0754 97.2012 28.0754C98.0944 28.0754 98.9238 27.9934 99.6895 27.8293C100.464 27.6562 101.294 27.3736 102.178 26.9817V29.593C101.394 29.9667 100.601 30.231 99.7988 30.386C98.9967 30.5409 98.0807 30.6184 97.0508 30.6184ZM96.4629 17.384C95.4421 17.384 94.6217 17.7076 94.002 18.3547C93.3913 19.0019 93.0267 19.9452 92.9082 21.1848H99.7715C99.7533 19.9361 99.4525 18.9928 98.8691 18.3547C98.2858 17.7076 97.4837 17.384 96.4629 17.384ZM119.883 30.345H116.656V21.0481C116.656 19.8814 116.419 19.011 115.945 18.4368C115.48 17.8625 114.738 17.5754 113.717 17.5754C112.359 17.5754 111.365 17.9765 110.736 18.7786C110.107 19.5806 109.793 20.925 109.793 22.8118V30.345H106.58V15.2239H109.096L109.547 17.2063H109.711C110.167 16.4862 110.814 15.9303 111.652 15.5383C112.491 15.1464 113.421 14.9504 114.441 14.9504C118.069 14.9504 119.883 16.7961 119.883 20.4875V30.345ZM137.096 30.345H133.869V21.0208C133.869 19.8632 133.65 19.0019 133.213 18.4368C132.775 17.8625 132.092 17.5754 131.162 17.5754C129.923 17.5754 129.011 17.981 128.428 18.7922C127.854 19.5943 127.566 20.9342 127.566 22.8118V30.345H124.354V15.2239H126.869L127.32 17.2063H127.484C127.904 16.4862 128.51 15.9303 129.303 15.5383C130.105 15.1464 130.984 14.9504 131.941 14.9504C134.266 14.9504 135.806 15.7434 136.562 17.3293H136.781C137.228 16.5819 137.857 15.9986 138.668 15.5793C139.479 15.1601 140.409 14.9504 141.457 14.9504C143.262 14.9504 144.574 15.4062 145.395 16.3176C146.224 17.2291 146.639 18.6191 146.639 20.4875V30.345H143.426V21.0208C143.426 19.8632 143.202 19.0019 142.756 18.4368C142.318 17.8625 141.635 17.5754 140.705 17.5754C139.456 17.5754 138.54 17.9674 137.957 18.7512C137.383 19.526 137.096 20.72 137.096 22.3333V30.345ZM160.584 30.345L159.941 28.2395H159.832C159.103 29.1601 158.369 29.789 157.631 30.1262C156.893 30.4543 155.945 30.6184 154.787 30.6184C153.301 30.6184 152.139 30.2174 151.301 29.4153C150.471 28.6132 150.057 27.4784 150.057 26.011C150.057 24.4524 150.635 23.2766 151.793 22.4836C152.951 21.6907 154.714 21.2577 157.084 21.1848L159.695 21.1028V20.2961C159.695 19.33 159.467 18.6099 159.012 18.136C158.565 17.6529 157.868 17.4114 156.92 17.4114C156.145 17.4114 155.402 17.5253 154.691 17.7532C153.98 17.981 153.297 18.2499 152.641 18.5598L151.602 16.2629C152.422 15.8346 153.32 15.511 154.295 15.2922C155.27 15.0644 156.191 14.9504 157.057 14.9504C158.98 14.9504 160.429 15.3697 161.404 16.2083C162.389 17.0468 162.881 18.3639 162.881 20.1594V30.345H160.584ZM155.799 28.1575C156.965 28.1575 157.9 27.8339 158.602 27.1868C159.312 26.5305 159.668 25.6145 159.668 24.4387V23.1262L157.727 23.2083C156.214 23.2629 155.111 23.5181 154.418 23.9739C153.734 24.4205 153.393 25.1086 153.393 26.0383C153.393 26.7128 153.593 27.2369 153.994 27.6106C154.395 27.9752 154.997 28.1575 155.799 28.1575ZM175.035 14.9504C175.682 14.9504 176.215 14.996 176.635 15.0872L176.32 18.0813C175.865 17.9719 175.391 17.9172 174.898 17.9172C173.613 17.9172 172.57 18.3365 171.768 19.175C170.975 20.0136 170.578 21.1028 170.578 22.4426V30.345H167.365V15.2239H169.881L170.305 17.8899H170.469C170.97 16.9875 171.622 16.2721 172.424 15.7434C173.235 15.2148 174.105 14.9504 175.035 14.9504ZM185.084 28.0208C185.868 28.0208 186.652 27.8977 187.436 27.6516V30.0715C187.08 30.2265 186.62 30.3541 186.055 30.4543C185.499 30.5637 184.92 30.6184 184.318 30.6184C181.274 30.6184 179.752 29.0142 179.752 25.8059V17.6575H177.688V16.2356L179.902 15.0598L180.996 11.8606H182.979V15.2239H187.285V17.6575H182.979V25.7512C182.979 26.526 183.17 27.1002 183.553 27.4739C183.945 27.8385 184.455 28.0208 185.084 28.0208Z" fill="#262643"/>
<defs>
<linearGradient id="paint0_linear" x1="0.805054" y1="19.345" x2="35.9902" y2="19.345" gradientUnits="userSpaceOnUse">
<stop stop-color="#4776E6"/>
<stop offset="1" stop-color="#8E54E9"/>
</linearGradient>
</defs>
</svg>
